<?xml version="1.0" encoding="utf-8"?>
<!-- Generator: Adobe Illustrator 19.2.1, SVG Export Plug-In . SVG Version: 6.00 Build 0)  -->
<svg version="1.1" id="Layer_1" xmlns="http://www.w3.org/2000/svg" xmlns:xlink="http://www.w3.org/1999/xlink" x="0px" y="0px"
	 viewBox="0 0 157.4 38.3" style="enable-background:new 0 0 157.4 38.3;" xml:space="preserve">
<style type="text/css">
	.st0{fill:#1464BF;}
	.st1{fill:#FF6642;}
	.st2{fill:#174D83;}
</style>
<g>
	<path class="st0" d="M23.5,22.4c0,6.7-2.8,9.2-7.4,9.2c-4,0-7.6-2.1-7.6-9.2V0.5h-8v21.7c0,12.3,7.2,15.6,15.5,15.6
		c8.1,0,15.5-3.2,15.5-15.8V0.5h-8V22.4z"/>
	<path class="st0" d="M50,14.8c-6-1.3-7.5-2.4-7.5-5c0-2.6,1.9-4,5.2-4c4.8,0,6,2.5,6.4,4.8h8C61.5,5.2,57.6,0,47.9,0
		c-8.7,0-13.5,4.3-13.5,10.7c0,5,2.5,8.7,12.5,11c6.3,1.4,8.1,2.7,8.1,5.8c0,2.7-1.8,4.4-6.1,4.4s-6.9-1.7-7.7-5.3h-8
		c0.9,6.7,5.8,11.3,15.2,11.3C58,37.9,63,33.2,63,26.5C63,21.3,60.7,17.4,50,14.8z"/>
	<path class="st0" d="M74.9,0.5L62.4,37.3h7.9l2.8-8.5h13.5l3,8.5H98L84.9,0.5H74.9z M74.8,22.3c2.1-6.7,3.9-12.4,4.8-16.1h0.1
		c0.9,3.3,2.6,8.3,5.2,16.1H74.8z"/>
	<path class="st1" d="M113.9,16.5h3.3v-16h-5c-1.3,4.1-3.1,9.7-3.5,11.8h0c-0.5-2.4-1.9-7.6-3.1-11.8h-5.2v16h3.2v-5.7
		c0-2.7-0.1-6-0.2-7.9h0.1c0.7,3.2,2.3,9.3,3.5,13.6h2.9c1.5-5,3.1-10.3,3.9-13.6h0.1c-0.1,1.8-0.1,4.9-0.1,7.6V16.5z"/>
	<polygon class="st1" points="132.8,13.7 124.4,13.7 124.4,9.6 132,9.6 132,6.8 124.4,6.8 124.4,3.3 132.4,3.3 132.4,0.5 121,0.5 
		121,16.5 132.4,16.5 	"/>
	<path class="st1" d="M149.4,8.3c0-4.7-3.1-7.8-7.7-7.8h-6.4v16h6.2C146.4,16.5,149.4,13,149.4,8.3z M138.7,13.7V3.3h2.6
		c3.1,0,4.4,2.4,4.4,5c0,3.1-1.4,5.4-4.4,5.4H138.7z"/>
	<path class="st2" d="M106.1,27.7c-2.8-0.7-3.7-1.3-3.7-2.8c0-1.5,1.1-2.4,3.1-2.4c2.4,0,3.2,1.2,3.6,2.6h2.2
		c-0.2-2.1-1.8-4.3-5.7-4.3c-3.6,0-5.4,2-5.4,4.4c0,2.3,1.3,3.6,5.1,4.5c3.2,0.8,4,1.7,4,3.3c0,1.5-1,2.7-3.5,2.7
		c-2.3,0-3.7-1-4.1-3h-2.2c0.3,2.5,2.1,4.7,6.2,4.7c3.9,0,5.9-2,5.9-4.6C111.5,30.6,110.7,28.8,106.1,27.7z"/>
	<path class="st2" d="M124.7,30.7c0,3.7-1.7,4.9-4.1,4.9c-2.1,0-4.2-1-4.2-4.9V21h-2.2v9.8c0,5,2.9,6.6,6.3,6.6
		c3.4,0,6.3-1.5,6.3-6.8V21h-2.2V30.7z"/>
	<path class="st2" d="M137.2,21h-6.1v16.2h2.2v-6.6h3.8c3.2,0,5.4-1.7,5.4-4.8C142.5,22.8,140.3,21,137.2,21z M137,28.7h-3.7v-5.9
		h3.8c1.9,0,3.2,1,3.2,2.9C140.3,27.6,139.2,28.7,137,28.7z"/>
	<path class="st2" d="M151.6,21h-6.1v16.2h2.2v-6.6h3.8c3.2,0,5.4-1.7,5.4-4.8C156.9,22.8,154.8,21,151.6,21z M151.4,28.7h-3.7v-5.9
		h3.8c1.9,0,3.2,1,3.2,2.9C154.7,27.6,153.6,28.7,151.4,28.7z"/>
</g>
</svg>
